<mxfile host="app.diagrams.net" modified="2021-02-10T07:05:26.785Z" agent="5.0 (Windows NT 10.0; Win64; x64) AppleWebKit/537.36 (KHTML, like Gecko) Chrome/87.0.4280.141 Safari/537.36" etag="epVLMt3i0FThsj6xROrH" version="14.3.0" type="github">
  <diagram id="a8uB-6vMHf5GR1PR28Jw" name="ページ1">
    <mxGraphModel dx="782" dy="738" grid="1" gridSize="10" guides="1" tooltips="1" connect="1" arrows="1" fold="1" page="1" pageScale="1" pageWidth="827" pageHeight="1169" math="0" shadow="0">
      <root>
        <mxCell id="0" />
        <mxCell id="1" parent="0" />
        <mxCell id="o9UxSs39eVzbqczVgl4Q-1" value="食材テーブル" style="shape=table;startSize=30;container=1;collapsible=1;childLayout=tableLayout;fixedRows=1;rowLines=0;fontStyle=1;align=center;resizeLast=1;" vertex="1" parent="1">
          <mxGeometry x="70" y="320" width="180" height="100" as="geometry" />
        </mxCell>
        <mxCell id="o9UxSs39eVzbqczVgl4Q-2" value="" style="shape=partialRectangle;collapsible=0;dropTarget=0;pointerEvents=0;fillColor=none;top=0;left=0;bottom=1;right=0;points=[[0,0.5],[1,0.5]];portConstraint=eastwest;" vertex="1" parent="o9UxSs39eVzbqczVgl4Q-1">
          <mxGeometry y="30" width="180" height="30" as="geometry" />
        </mxCell>
        <mxCell id="o9UxSs39eVzbqczVgl4Q-3" value="PK" style="shape=partialRectangle;connectable=0;fillColor=none;top=0;left=0;bottom=0;right=0;fontStyle=1;overflow=hidden;" vertex="1" parent="o9UxSs39eVzbqczVgl4Q-2">
          <mxGeometry width="30" height="30" as="geometry" />
        </mxCell>
        <mxCell id="o9UxSs39eVzbqczVgl4Q-4" value="食材ID" style="shape=partialRectangle;connectable=0;fillColor=none;top=0;left=0;bottom=0;right=0;align=left;spacingLeft=6;fontStyle=5;overflow=hidden;" vertex="1" parent="o9UxSs39eVzbqczVgl4Q-2">
          <mxGeometry x="30" width="150" height="30" as="geometry" />
        </mxCell>
        <mxCell id="o9UxSs39eVzbqczVgl4Q-5" value="" style="shape=partialRectangle;collapsible=0;dropTarget=0;pointerEvents=0;fillColor=none;top=0;left=0;bottom=0;right=0;points=[[0,0.5],[1,0.5]];portConstraint=eastwest;" vertex="1" parent="o9UxSs39eVzbqczVgl4Q-1">
          <mxGeometry y="60" width="180" height="30" as="geometry" />
        </mxCell>
        <mxCell id="o9UxSs39eVzbqczVgl4Q-6" value="" style="shape=partialRectangle;connectable=0;fillColor=none;top=0;left=0;bottom=0;right=0;editable=1;overflow=hidden;" vertex="1" parent="o9UxSs39eVzbqczVgl4Q-5">
          <mxGeometry width="30" height="30" as="geometry" />
        </mxCell>
        <mxCell id="o9UxSs39eVzbqczVgl4Q-7" value="食材" style="shape=partialRectangle;connectable=0;fillColor=none;top=0;left=0;bottom=0;right=0;align=left;spacingLeft=6;overflow=hidden;" vertex="1" parent="o9UxSs39eVzbqczVgl4Q-5">
          <mxGeometry x="30" width="150" height="30" as="geometry" />
        </mxCell>
        <mxCell id="o9UxSs39eVzbqczVgl4Q-31" value="レシピテーブル" style="shape=table;startSize=30;container=1;collapsible=1;childLayout=tableLayout;fixedRows=1;rowLines=0;fontStyle=1;align=center;resizeLast=1;" vertex="1" parent="1">
          <mxGeometry x="400" y="660" width="180" height="100" as="geometry" />
        </mxCell>
        <mxCell id="o9UxSs39eVzbqczVgl4Q-32" value="" style="shape=partialRectangle;collapsible=0;dropTarget=0;pointerEvents=0;fillColor=none;top=0;left=0;bottom=1;right=0;points=[[0,0.5],[1,0.5]];portConstraint=eastwest;" vertex="1" parent="o9UxSs39eVzbqczVgl4Q-31">
          <mxGeometry y="30" width="180" height="30" as="geometry" />
        </mxCell>
        <mxCell id="o9UxSs39eVzbqczVgl4Q-33" value="PK" style="shape=partialRectangle;connectable=0;fillColor=none;top=0;left=0;bottom=0;right=0;fontStyle=1;overflow=hidden;" vertex="1" parent="o9UxSs39eVzbqczVgl4Q-32">
          <mxGeometry width="30" height="30" as="geometry" />
        </mxCell>
        <mxCell id="o9UxSs39eVzbqczVgl4Q-34" value="レシピID" style="shape=partialRectangle;connectable=0;fillColor=none;top=0;left=0;bottom=0;right=0;align=left;spacingLeft=6;fontStyle=5;overflow=hidden;" vertex="1" parent="o9UxSs39eVzbqczVgl4Q-32">
          <mxGeometry x="30" width="150" height="30" as="geometry" />
        </mxCell>
        <mxCell id="o9UxSs39eVzbqczVgl4Q-35" value="" style="shape=partialRectangle;collapsible=0;dropTarget=0;pointerEvents=0;fillColor=none;top=0;left=0;bottom=0;right=0;points=[[0,0.5],[1,0.5]];portConstraint=eastwest;" vertex="1" parent="o9UxSs39eVzbqczVgl4Q-31">
          <mxGeometry y="60" width="180" height="30" as="geometry" />
        </mxCell>
        <mxCell id="o9UxSs39eVzbqczVgl4Q-36" value="" style="shape=partialRectangle;connectable=0;fillColor=none;top=0;left=0;bottom=0;right=0;editable=1;overflow=hidden;" vertex="1" parent="o9UxSs39eVzbqczVgl4Q-35">
          <mxGeometry width="30" height="30" as="geometry" />
        </mxCell>
        <mxCell id="o9UxSs39eVzbqczVgl4Q-37" value="レシピ" style="shape=partialRectangle;connectable=0;fillColor=none;top=0;left=0;bottom=0;right=0;align=left;spacingLeft=6;overflow=hidden;" vertex="1" parent="o9UxSs39eVzbqczVgl4Q-35">
          <mxGeometry x="30" width="150" height="30" as="geometry" />
        </mxCell>
        <mxCell id="o9UxSs39eVzbqczVgl4Q-57" value="メニューテーブル" style="shape=table;startSize=30;container=1;collapsible=1;childLayout=tableLayout;fixedRows=1;rowLines=0;fontStyle=1;align=center;resizeLast=1;" vertex="1" parent="1">
          <mxGeometry x="400" y="320" width="180" height="160" as="geometry" />
        </mxCell>
        <mxCell id="o9UxSs39eVzbqczVgl4Q-58" value="" style="shape=partialRectangle;collapsible=0;dropTarget=0;pointerEvents=0;fillColor=none;top=0;left=0;bottom=1;right=0;points=[[0,0.5],[1,0.5]];portConstraint=eastwest;" vertex="1" parent="o9UxSs39eVzbqczVgl4Q-57">
          <mxGeometry y="30" width="180" height="30" as="geometry" />
        </mxCell>
        <mxCell id="o9UxSs39eVzbqczVgl4Q-59" value="PK" style="shape=partialRectangle;connectable=0;fillColor=none;top=0;left=0;bottom=0;right=0;fontStyle=1;overflow=hidden;" vertex="1" parent="o9UxSs39eVzbqczVgl4Q-58">
          <mxGeometry width="30" height="30" as="geometry" />
        </mxCell>
        <mxCell id="o9UxSs39eVzbqczVgl4Q-60" value="メニューID" style="shape=partialRectangle;connectable=0;fillColor=none;top=0;left=0;bottom=0;right=0;align=left;spacingLeft=6;fontStyle=5;overflow=hidden;" vertex="1" parent="o9UxSs39eVzbqczVgl4Q-58">
          <mxGeometry x="30" width="150" height="30" as="geometry" />
        </mxCell>
        <mxCell id="o9UxSs39eVzbqczVgl4Q-85" value="" style="shape=partialRectangle;collapsible=0;dropTarget=0;pointerEvents=0;fillColor=none;top=0;left=0;bottom=0;right=0;points=[[0,0.5],[1,0.5]];portConstraint=eastwest;" vertex="1" parent="o9UxSs39eVzbqczVgl4Q-57">
          <mxGeometry y="60" width="180" height="30" as="geometry" />
        </mxCell>
        <mxCell id="o9UxSs39eVzbqczVgl4Q-86" value="" style="shape=partialRectangle;connectable=0;fillColor=none;top=0;left=0;bottom=0;right=0;editable=1;overflow=hidden;" vertex="1" parent="o9UxSs39eVzbqczVgl4Q-85">
          <mxGeometry width="30" height="30" as="geometry" />
        </mxCell>
        <mxCell id="o9UxSs39eVzbqczVgl4Q-87" value="メニュー名" style="shape=partialRectangle;connectable=0;fillColor=none;top=0;left=0;bottom=0;right=0;align=left;spacingLeft=6;overflow=hidden;" vertex="1" parent="o9UxSs39eVzbqczVgl4Q-85">
          <mxGeometry x="30" width="150" height="30" as="geometry" />
        </mxCell>
        <mxCell id="o9UxSs39eVzbqczVgl4Q-64" value="" style="shape=partialRectangle;collapsible=0;dropTarget=0;pointerEvents=0;fillColor=none;top=0;left=0;bottom=0;right=0;points=[[0,0.5],[1,0.5]];portConstraint=eastwest;" vertex="1" parent="o9UxSs39eVzbqczVgl4Q-57">
          <mxGeometry y="90" width="180" height="30" as="geometry" />
        </mxCell>
        <mxCell id="o9UxSs39eVzbqczVgl4Q-65" value="" style="shape=partialRectangle;connectable=0;fillColor=none;top=0;left=0;bottom=0;right=0;editable=1;overflow=hidden;" vertex="1" parent="o9UxSs39eVzbqczVgl4Q-64">
          <mxGeometry width="30" height="30" as="geometry" />
        </mxCell>
        <mxCell id="o9UxSs39eVzbqczVgl4Q-66" value="食材｛ josn ｝" style="shape=partialRectangle;connectable=0;fillColor=none;top=0;left=0;bottom=0;right=0;align=left;spacingLeft=6;overflow=hidden;" vertex="1" parent="o9UxSs39eVzbqczVgl4Q-64">
          <mxGeometry x="30" width="150" height="30" as="geometry" />
        </mxCell>
        <mxCell id="o9UxSs39eVzbqczVgl4Q-80" value="" style="shape=partialRectangle;collapsible=0;dropTarget=0;pointerEvents=0;fillColor=none;top=0;left=0;bottom=0;right=0;points=[[0,0.5],[1,0.5]];portConstraint=eastwest;" vertex="1" parent="o9UxSs39eVzbqczVgl4Q-57">
          <mxGeometry y="120" width="180" height="30" as="geometry" />
        </mxCell>
        <mxCell id="o9UxSs39eVzbqczVgl4Q-81" value="" style="shape=partialRectangle;connectable=0;fillColor=none;top=0;left=0;bottom=0;right=0;editable=1;overflow=hidden;" vertex="1" parent="o9UxSs39eVzbqczVgl4Q-80">
          <mxGeometry width="30" height="30" as="geometry" />
        </mxCell>
        <mxCell id="o9UxSs39eVzbqczVgl4Q-82" value="レシピID" style="shape=partialRectangle;connectable=0;fillColor=none;top=0;left=0;bottom=0;right=0;align=left;spacingLeft=6;overflow=hidden;" vertex="1" parent="o9UxSs39eVzbqczVgl4Q-80">
          <mxGeometry x="30" width="150" height="30" as="geometry" />
        </mxCell>
        <mxCell id="o9UxSs39eVzbqczVgl4Q-71" value="" style="endArrow=classic;html=1;exitX=1;exitY=0.5;exitDx=0;exitDy=0;entryX=0;entryY=0.5;entryDx=0;entryDy=0;" edge="1" parent="1" source="o9UxSs39eVzbqczVgl4Q-2" target="o9UxSs39eVzbqczVgl4Q-58">
          <mxGeometry width="50" height="50" relative="1" as="geometry">
            <mxPoint x="380" y="470" as="sourcePoint" />
            <mxPoint x="430" y="420" as="targetPoint" />
          </mxGeometry>
        </mxCell>
        <mxCell id="o9UxSs39eVzbqczVgl4Q-83" value="" style="endArrow=none;html=1;entryX=0.5;entryY=1;entryDx=0;entryDy=0;exitX=0.5;exitY=0;exitDx=0;exitDy=0;" edge="1" parent="1" source="o9UxSs39eVzbqczVgl4Q-31" target="o9UxSs39eVzbqczVgl4Q-57">
          <mxGeometry width="50" height="50" relative="1" as="geometry">
            <mxPoint x="380" y="570" as="sourcePoint" />
            <mxPoint x="430" y="520" as="targetPoint" />
          </mxGeometry>
        </mxCell>
      </root>
    </mxGraphModel>
  </diagram>
</mxfile>
